<svg width="36" height="40" viewBox="0 0 36 40" fill="none" xmlns="http://www.w3.org/2000/svg">
<g clip-path="url(#clip0_368_1427)">
<path d="M14.325 23.7419C14.2306 24.5105 14.3006 25.2904 14.5304 26.0299C14.7602 26.7694 15.1444 27.4517 15.6577 28.0315C16.171 28.6114 16.8016 29.0756 17.5078 29.3934C18.2139 29.7111 18.9796 29.8752 19.754 29.8749H19.774C20.4888 29.912 21.2022 29.7791 21.8556 29.487C22.509 29.1948 23.0838 28.7519 23.5328 28.1944C23.9818 27.637 24.2922 26.981 24.4384 26.2804C24.5846 25.5797 24.5625 24.8543 24.374 24.1639C24.3294 24.0181 24.2299 23.8954 24.0964 23.8219C23.9629 23.7483 23.806 23.7297 23.659 23.7699C23.5119 23.8101 23.3864 23.906 23.3089 24.0372C23.2314 24.1685 23.2081 24.3247 23.244 24.4729C23.3852 24.9896 23.4006 25.5327 23.2888 26.0567C23.1771 26.5806 22.9415 27.0701 22.6017 27.4843C22.262 27.8985 21.8279 28.2253 21.3359 28.4373C20.844 28.6493 20.3084 28.7403 19.774 28.7029H19.758C19.1847 28.7041 18.617 28.5904 18.0885 28.3684C17.56 28.1464 17.0814 27.8206 16.6811 27.4104C16.2807 27.0001 15.9667 26.5137 15.7576 25.98C15.5486 25.4462 15.4487 24.8759 15.464 24.3029L15.784 24.3619C15.9067 24.3846 16.0331 24.377 16.1523 24.3396C16.2714 24.3023 16.3795 24.2364 16.4673 24.1476C16.5551 24.0588 16.6198 23.9499 16.6558 23.8304C16.6919 23.7109 16.6981 23.5844 16.674 23.4619C16.6012 23.096 16.5985 22.7197 16.666 22.3529C16.6955 22.2006 16.6634 22.0427 16.5768 21.914C16.4901 21.7853 16.3559 21.6962 16.2037 21.6663C16.0514 21.6364 15.8935 21.668 15.7646 21.7544C15.6357 21.8407 15.5462 21.9747 15.516 22.1269C15.4539 22.4489 15.4321 22.7774 15.451 23.1049L15.224 23.0629C15.1198 23.044 15.0129 23.0469 14.9099 23.0714C14.8069 23.0959 14.7101 23.1415 14.6256 23.2053C14.5412 23.2691 14.4708 23.3497 14.4191 23.4421C14.3673 23.5344 14.3353 23.6365 14.325 23.7419V23.7419Z" fill="#FD5A40"/>
<path d="M1.14898 20.0988L1.12198 20.1368C0.872425 20.518 0.726754 20.9578 0.699392 21.4126C0.672031 21.8674 0.763927 22.3215 0.965984 22.7298C1.23253 23.2852 1.61635 23.7762 2.09099 24.1688C1.83379 24.5985 1.72911 25.1024 1.7939 25.5989C1.85869 26.0954 2.08915 26.5556 2.44798 26.9048C2.77924 27.2371 3.17344 27.5 3.60752 27.678C4.04159 27.8561 4.50682 27.9458 4.97598 27.9418C7.08557 27.8686 9.15937 27.3753 11.076 26.4908C11.5203 27.8586 12.2957 29.0953 13.3332 30.0911C14.3707 31.087 15.6382 31.811 17.023 32.1988C17.1546 32.2391 17.2697 32.3207 17.3515 32.4314C17.4332 32.5421 17.4772 32.6762 17.477 32.8138C17.456 33.2564 17.5746 33.6944 17.8162 34.0659C18.0577 34.4374 18.4099 34.7235 18.823 34.8838V38.1718L18.436 38.1188C18.0738 38.0703 17.7052 38.126 17.3735 38.2793C17.0418 38.4327 16.7606 38.6774 16.563 38.9848C16.5215 39.0496 16.4932 39.122 16.4796 39.1978C16.4661 39.2735 16.4676 39.3512 16.4841 39.4264C16.5006 39.5015 16.5317 39.5727 16.5757 39.6358C16.6197 39.699 16.6757 39.7528 16.7405 39.7943C16.8053 39.8358 16.8776 39.8642 16.9534 39.8777C17.0291 39.8912 17.1068 39.8897 17.182 39.8732C17.2572 39.8568 17.3284 39.8256 17.3915 39.7816C17.4546 39.7376 17.5085 39.6816 17.55 39.6168C17.6267 39.4975 17.7358 39.4025 17.8646 39.343C17.9933 39.2835 18.1364 39.2619 18.277 39.2808C18.8584 39.4165 19.4635 39.4145 20.044 39.2748L21.592 38.8448C21.7376 38.8047 21.892 38.8096 22.0348 38.8588C22.1776 38.9081 22.3021 38.9994 22.392 39.1208L22.864 39.7608C22.9099 39.8228 22.9677 39.875 23.0338 39.9146C23.1 39.9543 23.1733 39.9804 23.2496 39.9917C23.3259 40.003 23.4036 39.9992 23.4784 39.9804C23.5532 39.9616 23.6236 39.9283 23.6855 39.8823C23.7474 39.8364 23.7997 39.7787 23.8393 39.7125C23.8789 39.6464 23.9051 39.573 23.9164 39.4968C23.9277 39.4205 23.9238 39.3427 23.905 39.2679C23.8863 39.1931 23.8529 39.1228 23.807 39.0608L23.335 38.4208C23.1036 38.1096 22.7836 37.8754 22.417 37.7489C22.0504 37.6224 21.6541 37.6095 21.28 37.7118L19.996 38.0678V34.9678C20.3108 34.9013 20.6058 34.7624 20.8577 34.5621C21.1095 34.3618 21.3113 34.1056 21.447 33.8138L22.037 32.5578C22.0762 32.4744 22.1329 32.4003 22.2033 32.3408C22.2737 32.2813 22.3562 32.2376 22.445 32.2128C23.4652 31.9258 24.4398 31.4962 25.34 30.9368C25.4056 30.8964 25.4627 30.8434 25.5079 30.7809C25.5531 30.7184 25.5855 30.6476 25.6033 30.5726C25.6212 30.4976 25.624 30.4198 25.6118 30.3436C25.5996 30.2675 25.5724 30.1945 25.532 30.1288C25.4915 30.0632 25.4386 30.0061 25.3761 29.9609C25.3136 29.9158 25.2428 29.8833 25.1677 29.8655C25.0927 29.8477 25.0149 29.8448 24.9388 29.857C24.8626 29.8693 24.7896 29.8964 24.724 29.9368C23.9174 30.4382 23.0441 30.8234 22.13 31.0808C21.8787 31.1508 21.6455 31.2742 21.4463 31.4427C21.2471 31.6112 21.0867 31.8206 20.976 32.0568L20.386 33.3128C20.2989 33.5034 20.1481 33.6576 19.9595 33.7489C19.771 33.8401 19.5564 33.8628 19.353 33.8128C19.1329 33.7577 18.9401 33.625 18.81 33.4391C18.6799 33.2531 18.6213 33.0265 18.645 32.8008C18.6439 32.4108 18.5176 32.0313 18.2846 31.7184C18.0517 31.4055 17.7244 31.1757 17.351 31.0628C13.142 29.8178 11.297 25.8968 11.676 21.5078L12.883 21.7318H12.888C13.0356 21.7582 13.1875 21.7483 13.3305 21.703C13.4735 21.6578 13.6034 21.5785 13.709 21.472C13.8146 21.3655 13.8928 21.235 13.9369 21.0916C13.9809 20.9482 13.9896 20.7963 13.962 20.6488V20.6488C13.8381 20.0063 13.8148 19.3485 13.893 18.6988C16.267 20.0988 19.612 20.3778 22.367 20.1848C22.7502 20.6129 23.2743 20.8893 23.844 20.9638C23.7673 21.3431 23.7558 21.7327 23.81 22.1158C23.8406 22.3456 23.9565 22.5555 24.1347 22.7037C24.313 22.8519 24.5405 22.9277 24.772 22.9158C25.1095 22.9016 25.4429 22.8365 25.761 22.7228C25.7938 23.1952 25.9235 23.6558 26.142 24.0758C26.2676 24.281 26.4681 24.4291 26.7011 24.4888C26.9341 24.5486 27.1812 24.5152 27.39 24.3958C27.6688 24.2385 27.9263 24.0459 28.156 23.8228C28.3324 24.1296 28.5643 24.4009 28.84 24.6228C28.5152 26.0281 27.7911 27.3095 26.755 28.3128C26.65 28.425 26.5933 28.5738 26.597 28.7274C26.6007 28.8809 26.6646 29.0269 26.7748 29.1338C26.885 29.2408 27.0328 29.3002 27.1864 29.2992C27.34 29.2983 27.4871 29.2371 27.596 29.1288C28.8182 27.9474 29.6571 26.4259 30.004 24.7618C30.188 24.6488 30.3264 24.4746 30.395 24.2698C30.6131 23.6195 30.7566 22.9465 30.823 22.2638C31.4651 22.2382 32.0953 22.0831 32.676 21.8078C32.9652 21.6738 33.2188 21.4735 33.4162 21.2233C33.6137 20.973 33.7494 20.6797 33.8124 20.3672C33.8754 20.0547 33.8639 19.7318 33.7789 19.4246C33.6939 19.1174 33.5377 18.8345 33.323 18.5988C32.5666 17.7095 32.1226 16.5966 32.059 15.4308C32.6774 14.9265 33.3748 14.5275 34.123 14.2498C34.2797 14.3212 34.4548 14.3417 34.6237 14.3085C34.7927 14.2752 34.947 14.1899 35.0649 14.0644C35.1829 13.939 35.2586 13.7797 35.2813 13.609C35.3041 13.4384 35.2729 13.2648 35.192 13.1128V13.1128C34.8562 12.4375 34.3868 11.8373 33.8121 11.3488C33.2375 10.8603 32.5696 10.4935 31.849 10.2708C31.8134 9.90383 31.7287 9.54326 31.597 9.19884L31.916 9.16684C32.0638 9.15316 32.2059 9.10315 32.3296 9.02125C32.4534 8.93936 32.555 8.82813 32.6254 8.69747C32.6958 8.56681 32.7327 8.42077 32.733 8.27235C32.7333 8.12394 32.6969 7.97777 32.627 7.84684C32.5 7.60484 32.351 7.34684 32.186 7.07884C31.8722 6.57012 31.382 6.19487 30.809 6.02484L29.323 1.12584C29.2153 0.774072 28.989 0.470469 28.6828 0.266651C28.3765 0.0628323 28.0091 -0.0286207 27.643 0.00784033L25.795 0.19284C25.4291 0.23016 25.0875 0.392993 24.8281 0.653673C24.5687 0.914354 24.4075 1.2568 24.372 1.62284L23.886 6.72284C23.5059 6.95415 23.1815 7.26652 22.936 7.63765C22.6906 8.00878 22.5301 8.42952 22.466 8.86984C22.4244 9.01175 22.4185 9.16172 22.4486 9.30649C22.4788 9.45125 22.5442 9.58635 22.639 9.69984C22.7673 9.84007 22.9318 9.94224 23.1144 9.99516C23.2969 10.0481 23.4906 10.0497 23.674 9.99984C23.3834 11.3406 23.3895 12.7287 23.692 14.0668C23.8326 14.7793 23.8963 15.5048 23.882 16.2308C23.8511 16.7356 23.7097 17.2274 23.4678 17.6715C23.2259 18.1156 22.8893 18.5012 22.482 18.8008C22.3987 18.8627 22.3264 18.9381 22.268 19.0238C20.3975 19.1645 18.5166 19.0168 16.691 18.5858C16.7909 17.1842 16.8137 15.778 16.759 14.3738C16.7513 14.2196 16.683 14.0747 16.569 13.9705C16.455 13.8664 16.3045 13.8114 16.1502 13.8176C15.9959 13.8238 15.8503 13.8906 15.745 14.0036C15.6398 14.1165 15.5833 14.2665 15.588 14.4208C15.6374 15.6835 15.6221 16.9478 15.542 18.2088C15.4653 18.1782 15.3897 18.1468 15.315 18.1148C14.5195 15.4067 13.5045 12.768 12.28 10.2248C12.6034 9.83172 13.0441 9.55239 13.5376 9.4277C14.0312 9.303 14.5517 9.3395 15.023 9.53184C15.149 10.1508 15.276 10.8868 15.38 11.7318C15.3879 11.8094 15.4113 11.8846 15.4486 11.953C15.486 12.0214 15.5366 12.0817 15.5976 12.1303C15.6585 12.1789 15.7286 12.2149 15.8036 12.2361C15.8786 12.2573 15.9571 12.2633 16.0345 12.2538C16.1118 12.2443 16.1865 12.2194 16.2542 12.1807C16.3218 12.1419 16.3811 12.0901 16.4284 12.0281C16.4758 11.9662 16.5103 11.8955 16.53 11.82C16.5496 11.7446 16.5541 11.666 16.543 11.5888C16.3896 10.3251 16.1491 9.07341 15.823 7.84284C15.6986 7.32452 15.4682 6.83757 15.1463 6.4127C14.8244 5.98783 14.418 5.63423 13.9526 5.37419C13.4873 5.11414 12.9732 4.9533 12.4427 4.90178C11.9121 4.85026 11.3766 4.90918 10.87 5.07484C10.3102 5.31023 9.81174 5.67079 9.41298 6.12884C8.96494 5.84262 8.45601 5.66546 7.92708 5.61159C7.39814 5.55772 6.86395 5.62865 6.3674 5.81867C5.87085 6.00869 5.42579 6.31252 5.06795 6.70574C4.71011 7.09896 4.44948 7.57062 4.30699 8.08284C4.20074 8.47225 4.13045 8.87059 4.09698 9.27284C3.25255 9.22823 2.42335 9.51037 1.78136 10.0607C1.13938 10.6111 0.733884 11.3875 0.648985 12.2288C0.5591 13.1669 0.724249 14.1119 1.12699 14.9638C-0.519014 16.2278 -0.234015 18.4888 1.14898 20.0988ZM32.449 19.3888C32.5393 19.4888 32.6049 19.6085 32.6404 19.7385C32.676 19.8684 32.6804 20.0049 32.6535 20.1369C32.6265 20.2689 32.5689 20.3927 32.4852 20.4983C32.4016 20.6039 32.2943 20.6884 32.172 20.7448C31.7601 20.941 31.3151 21.058 30.86 21.0898C30.8485 20.5193 30.79 19.9507 30.685 19.3898C30.4342 18.3123 30.5308 17.1831 30.961 16.1638C31.1357 17.3604 31.6525 18.481 32.449 19.3908V19.3888ZM31.109 14.6988C31.0755 14.7279 31.035 14.7478 30.9914 14.7566C30.9479 14.7654 30.9029 14.7628 30.8607 14.749C30.8185 14.7352 30.7806 14.7107 30.7507 14.6779C30.7208 14.6451 30.6999 14.6051 30.69 14.5618C30.6446 14.359 30.6224 14.1517 30.624 13.9438C31.1658 13.8677 31.7132 13.8386 32.26 13.8568C31.8536 14.1051 31.4686 14.3867 31.109 14.6988V14.6988ZM33.629 12.8548C32.6081 12.6489 31.5594 12.6209 30.529 12.7718C30.5257 12.2836 30.673 11.8062 30.951 11.4048V11.4048C30.9774 11.3738 31.0113 11.35 31.0494 11.3355C31.0875 11.321 31.1286 11.3163 31.169 11.3218C32.1535 11.5022 33.0324 12.0507 33.627 12.8558L33.629 12.8548ZM25.539 1.73384C25.5484 1.63791 25.5907 1.54818 25.6586 1.47984C25.7266 1.4115 25.8161 1.36876 25.912 1.35884L27.759 1.17384H27.801C27.8911 1.17406 27.9787 1.20338 28.0508 1.25744C28.1229 1.3115 28.1755 1.3874 28.201 1.47384L28.811 3.48084C27.6464 3.49681 26.4854 3.61358 25.341 3.82984L25.539 1.73384ZM25.223 5.03984C26.5196 4.77052 27.8407 4.63647 29.165 4.63984L29.532 5.84684C28.0416 5.7482 26.5451 5.89825 25.104 6.29084L25.223 5.03984ZM23.712 8.81084C24 7.94984 24.076 7.70384 26.012 7.27784C27.4164 6.96942 28.8643 6.91119 30.289 7.10584C30.4731 7.13134 30.6493 7.19728 30.8049 7.29895C30.9605 7.40061 31.0917 7.53547 31.189 7.69384C31.2617 7.81184 31.3307 7.92717 31.396 8.03984L23.711 8.81084H23.712ZM25.052 16.3108C25.0759 15.4966 25.0088 14.6822 24.852 13.8828C24.5171 12.5599 24.5541 11.1701 24.959 9.86684L30.223 9.33484L30.367 9.32084C30.5149 9.60432 30.613 9.91112 30.657 10.2278C29.668 10.5818 29.103 12.3108 29.479 13.4948C29.4034 13.8523 29.4076 14.222 29.491 14.5777C29.5745 14.9334 29.7353 15.2663 29.962 15.5528C28.505 18.2878 30.35 20.0688 29.389 23.5448C29.2545 23.3962 29.1469 23.2253 29.071 23.0398C29.0098 22.8906 28.9106 22.7599 28.7834 22.6606C28.6562 22.5614 28.5053 22.4971 28.3456 22.4741C28.186 22.4511 28.023 22.4701 27.873 22.5293C27.7229 22.5886 27.5909 22.686 27.49 22.8118C27.3605 22.9698 27.2101 23.1094 27.043 23.2268C26.9589 22.931 26.9106 22.6262 26.899 22.3188C26.8913 22.165 26.8454 22.0155 26.7654 21.8838C26.6854 21.7522 26.5738 21.6425 26.4408 21.5648C26.3078 21.4871 26.1575 21.4437 26.0036 21.4387C25.8496 21.4336 25.6968 21.467 25.559 21.5358C25.3658 21.6313 25.1585 21.6951 24.945 21.7248C24.9333 21.4882 24.9627 21.2514 25.032 21.0248C25.1018 20.8035 25.086 20.5641 24.9876 20.3539C24.8893 20.1437 24.7156 19.9781 24.501 19.8898C24.184 19.7608 23.834 19.8898 23.401 19.5568C23.8791 19.1529 24.2712 18.6569 24.554 18.0984C24.8368 17.54 25.0044 16.9304 25.047 16.3058L25.052 16.3108ZM2.02299 22.2218C1.9108 22.0132 1.85395 21.7793 1.85788 21.5424C1.86181 21.3056 1.92638 21.0737 2.04543 20.8689C2.16448 20.6641 2.33403 20.4932 2.5379 20.3726C2.74178 20.252 2.97317 20.1856 3.20999 20.1798C3.77592 20.2007 4.33901 20.2703 4.89298 20.3878C4.66758 20.7678 4.54864 21.2015 4.54864 21.6433C4.54864 22.0852 4.66758 22.5188 4.89298 22.8988C4.23224 22.9702 3.58351 23.1269 2.96298 23.3648C2.56279 23.0645 2.24045 22.6725 2.02299 22.2218V22.2218ZM3.27799 26.0768C3.16767 25.9749 3.0809 25.8502 3.02372 25.7114C2.96653 25.5725 2.94032 25.4229 2.94689 25.2728C2.95345 25.1228 2.99265 24.976 3.06175 24.8427C3.13085 24.7094 3.22819 24.5927 3.34698 24.5008C3.89381 24.2586 4.47709 24.1089 5.07298 24.0578C4.92047 24.5175 4.89909 25.0105 5.01126 25.4816C5.12343 25.9527 5.3647 26.3833 5.70798 26.7248C5.28096 26.823 4.83641 26.8152 4.41306 26.7023C3.98971 26.5894 3.60039 26.3746 3.27899 26.0768H3.27799ZM10.466 23.0768C9.07723 22.8574 7.67163 22.7627 6.26599 22.7938C6.11218 22.6694 5.98542 22.5148 5.89347 22.3396C5.80152 22.1644 5.74631 21.9723 5.73124 21.775C5.71616 21.5778 5.74154 21.3795 5.80581 21.1924C5.87007 21.0053 5.97188 20.8332 6.10499 20.6868C7.60751 21.1395 9.06609 21.7269 10.463 22.4418C10.459 22.5848 10.461 22.8898 10.467 23.0768H10.466ZM7.37898 26.4768C6.24098 25.9158 5.77898 25.0968 6.36698 23.9558C7.77215 23.933 9.17643 24.0398 10.562 24.2748C10.609 24.6378 10.672 24.9928 10.75 25.3398C9.68233 25.8682 8.54852 26.2506 7.37898 26.4768V26.4768ZM10.534 21.1668C9.16652 20.4895 7.74159 19.935 6.27598 19.5098C6.10343 19.3362 5.96749 19.1298 5.87623 18.9027C5.78498 18.6755 5.74026 18.4324 5.74474 18.1877C5.74921 17.943 5.80279 17.7016 5.90229 17.478C6.00179 17.2544 6.14519 17.053 6.32398 16.8858C8.06957 17.8702 9.71531 19.022 11.238 20.3248C11.0458 20.3723 10.8739 20.4801 10.7474 20.6323C10.6209 20.7845 10.5465 20.9733 10.535 21.1708L10.534 21.1668ZM6.71298 15.7608C6.08698 14.3188 6.28198 13.2788 7.80198 12.9698C9.66108 14.8657 11.2968 16.9684 12.677 19.2368C12.6697 19.5037 12.6767 19.7707 12.698 20.0368C10.8725 18.3896 8.86484 16.9563 6.71398 15.7648L6.71298 15.7608ZM13.866 17.3798C13.7185 17.3545 13.567 17.3651 13.4245 17.4107C13.2819 17.4563 13.1524 17.5356 13.047 17.6418C11.7705 15.6687 10.2962 13.8309 8.64699 12.1568C8.70277 11.8832 8.8155 11.6244 8.97783 11.3972C9.14017 11.17 9.34848 10.9794 9.58925 10.838C9.83002 10.6965 10.0979 10.6073 10.3754 10.5761C10.6529 10.5449 10.9338 10.5724 11.2 10.6568C12.2568 12.8268 13.149 15.0731 13.869 17.3768L13.866 17.3798ZM14.718 8.23984C14.1821 8.14327 13.631 8.17308 13.1087 8.32689C12.5863 8.48069 12.107 8.75426 11.709 9.12584C11.2874 8.35506 10.8091 7.61669 10.278 6.91684C11.842 5.16984 14.177 6.19884 14.723 8.24284L14.718 8.23984ZM5.54399 8.09884C5.69977 7.74359 5.94561 7.43518 6.25718 7.2041C6.56874 6.97302 6.93524 6.82729 7.32042 6.78133C7.70559 6.73537 8.09609 6.79077 8.45328 6.94204C8.81047 7.09332 9.12198 7.33523 9.35699 7.64384C9.79142 8.21693 10.1873 8.81825 10.542 9.44384C9.9383 9.428 9.34403 9.59594 8.83793 9.92542C8.33184 10.2549 7.93778 10.7304 7.70798 11.2888C6.96324 10.6103 6.13887 10.0247 5.25299 9.54484C5.27526 9.05077 5.3734 8.56307 5.54399 8.09884V8.09884ZM1.81799 12.3448C1.85678 11.9838 1.98717 11.6386 2.19679 11.342C2.4064 11.0455 2.6883 10.8074 3.01574 10.6503C3.34318 10.4932 3.70531 10.4224 4.0678 10.4446C4.43028 10.4667 4.7811 10.5811 5.08698 10.7768C5.69319 11.1627 6.26978 11.5932 6.81198 12.0648C6.22834 12.2869 5.74765 12.7174 5.46271 13.2731C5.17776 13.8287 5.10874 14.4703 5.26898 15.0738C3.71098 14.4148 2.95698 14.2738 2.18598 14.4608C1.87646 13.8007 1.74939 13.0697 1.81799 12.3438V12.3448ZM3.28098 15.6168C3.95071 15.8043 4.60391 16.0464 5.23398 16.3408C4.90618 16.7257 4.68971 17.1928 4.60794 17.6918C4.52617 18.1907 4.5822 18.7024 4.76998 19.1718C3.86579 18.885 2.8884 18.9347 2.01798 19.3118C0.117984 17.0658 1.73299 15.1998 3.27999 15.6118L3.28098 15.6168Z" fill="#FD5A40"/>
</g>
<defs>
<clipPath id="clip0_368_1427">
<rect width="35.285" height="40" fill="white"/>
</clipPath>
</defs>
</svg>
