<svg width="34" height="40" viewBox="0 0 34 40" fill="none" xmlns="http://www.w3.org/2000/svg">
<g clip-path="url(#clip0_368_1516)">
<path d="M32.971 20.0008C33.1262 20.0008 33.275 19.9392 33.3847 19.8295C33.4944 19.7198 33.556 19.571 33.556 19.4158V19.0648C33.5552 18.2861 33.2455 17.5396 32.6949 16.9889C32.1443 16.4383 31.3977 16.1286 30.619 16.1278H29.399V15.8278C29.7115 15.5986 29.9733 15.3074 30.168 14.9724C30.3628 14.6374 30.4864 14.2658 30.531 13.8808L30.715 11.3888C30.7584 10.7986 30.6414 10.2075 30.3764 9.67826C30.1114 9.14901 29.7083 8.70125 29.2097 8.38235C28.711 8.06346 28.1355 7.8853 27.5439 7.86672C26.9523 7.84815 26.3667 7.98986 25.849 8.27685C25.3235 8.23957 24.7963 8.23223 24.27 8.25485V7.95485C24.5825 7.72563 24.8443 7.43441 25.039 7.09939C25.2338 6.76438 25.3574 6.39279 25.402 6.00785L25.585 3.52385C25.6194 3.07286 25.5602 2.61963 25.4113 2.19258C25.2623 1.76552 25.0267 1.37384 24.7193 1.04209C24.4118 0.710338 24.0392 0.445667 23.6247 0.264665C23.2102 0.0836633 22.7628 -0.00976562 22.3105 -0.00976562C21.8582 -0.00976563 21.4108 0.0836633 20.9963 0.264665C20.5818 0.445667 20.2092 0.710338 19.9017 1.04209C19.5943 1.37384 19.3587 1.76552 19.2097 2.19258C19.0608 2.61963 19.0016 3.07286 19.036 3.52385L19.22 6.01585C19.2646 6.4008 19.3881 6.77242 19.5829 7.10744C19.7777 7.44246 20.0395 7.73367 20.352 7.96285V8.26285H19.132C18.9078 8.26271 18.6844 8.28821 18.466 8.33885C17.9566 8.03348 17.3739 7.87218 16.78 7.87218C16.1861 7.87218 15.6034 8.03348 15.094 8.33885C14.8756 8.28821 14.6522 8.26271 14.428 8.26285H13.208V7.96285C13.5205 7.73363 13.7823 7.44241 13.977 7.10739C14.1718 6.77238 14.2954 6.40079 14.34 6.01585L14.524 3.52385C14.5574 3.07335 14.4975 2.62081 14.3481 2.19451C14.1987 1.76821 13.9629 1.37732 13.6555 1.04629C13.3481 0.715266 12.9758 0.451213 12.5617 0.270647C12.1476 0.0900798 11.7007 -0.00311739 11.249 -0.00311739C10.7973 -0.00311739 10.3504 0.0900798 9.93632 0.270647C9.52224 0.451213 9.14987 0.715266 8.84249 1.04629C8.53511 1.37732 8.29934 1.76821 8.1499 2.19451C8.00046 2.62081 7.94058 3.07335 7.974 3.52385L8.158 6.01585C8.20196 6.40041 8.32472 6.77178 8.51863 7.10678C8.71254 7.44177 8.97342 7.73319 9.285 7.96285V8.26285C8.75866 8.24164 8.23155 8.24899 7.706 8.28485C7.18835 7.99786 6.60274 7.85615 6.01115 7.87472C5.41955 7.8933 4.84398 8.07146 4.34535 8.39035C3.84672 8.70925 3.44358 9.15701 3.17858 9.68626C2.91359 10.2155 2.7966 10.8066 2.84 11.3968L3.024 13.8888C3.06856 14.2738 3.1921 14.6454 3.38688 14.9804C3.58167 15.3155 3.8435 15.6067 4.156 15.8358V16.1358H2.937C2.1583 16.1366 1.41173 16.4463 0.861107 16.997C0.310485 17.5476 0.000794184 18.2941 0 19.0728V27.3278C0.000528908 27.66 0.132712 27.9784 0.36758 28.2133C0.602449 28.4481 0.920848 28.5803 1.253 28.5808C2.353 28.5808 2.294 28.5808 2.353 28.5808V32.8648C2.353 33.02 2.41464 33.1688 2.52435 33.2785C2.63405 33.3882 2.78285 33.4498 2.938 33.4498C3.09315 33.4498 3.24195 33.3882 3.35166 33.2785C3.46137 33.1688 3.523 33.02 3.523 32.8648V20.1898C3.523 20.0347 3.46137 19.8859 3.35166 19.7762C3.24195 19.6665 3.09315 19.6048 2.938 19.6048C2.78285 19.6048 2.63405 19.6665 2.52435 19.7762C2.41464 19.8859 2.353 20.0347 2.353 20.1898V27.3188C2.353 27.3409 2.34426 27.362 2.32869 27.3775C2.31312 27.3931 2.29201 27.4018 2.27 27.4018H1.253C1.23099 27.4018 1.20988 27.3931 1.19431 27.3775C1.17875 27.362 1.17 27.3409 1.17 27.3188V19.0638C1.17159 18.5961 1.35839 18.148 1.68954 17.8176C2.02068 17.4872 2.46922 17.3014 2.937 17.3008H4.5C4.6079 17.3046 4.71544 17.2865 4.81616 17.2476C4.91688 17.2088 5.00869 17.1499 5.08605 17.0746C5.16341 16.9993 5.22473 16.9091 5.26631 16.8095C5.30789 16.7098 5.32888 16.6028 5.328 16.4948C5.57791 16.6001 5.84633 16.6543 6.1175 16.6543C6.38867 16.6543 6.6571 16.6001 6.907 16.4948C6.90613 16.6028 6.92711 16.7098 6.96869 16.8095C7.01028 16.9091 7.07159 16.9993 7.14896 17.0746C7.22632 17.1499 7.31812 17.2088 7.41884 17.2476C7.51956 17.2865 7.6271 17.3046 7.735 17.3008H9.297C9.6031 17.3009 9.90394 17.3805 10.17 17.5318C9.48637 17.7687 8.9001 18.2248 8.50228 18.8291C8.10445 19.4335 7.91734 20.1522 7.97 20.8738L8.154 23.3658C8.19903 23.75 8.32269 24.1208 8.51727 24.4551C8.71185 24.7893 8.97319 25.08 9.285 25.3088V25.6088H8.065C7.28631 25.6096 6.53973 25.9193 5.98911 26.4699C5.43848 27.0206 5.1288 27.7671 5.128 28.5458V36.8008C5.12766 36.9733 5.16302 37.144 5.23186 37.3022C5.3007 37.4604 5.40153 37.6026 5.528 37.7198V38.8308H3.518V35.5838C3.518 35.4287 3.45637 35.2799 3.34666 35.1702C3.23695 35.0605 3.08815 34.9988 2.933 34.9988C2.77785 34.9988 2.62905 35.0605 2.51934 35.1702C2.40964 35.2799 2.348 35.4287 2.348 35.5838V38.9288C2.34813 39.0699 2.37608 39.2096 2.43025 39.3399C2.48442 39.4701 2.56375 39.5884 2.66369 39.688C2.76363 39.7876 2.88223 39.8664 3.01269 39.9201C3.14316 39.9738 3.28292 40.0012 3.424 40.0008H30.132C30.4162 40.0006 30.6887 39.8876 30.8897 39.6866C31.0907 39.4856 31.2037 39.2131 31.204 38.9288V28.5698C31.261 28.5698 31.169 28.5698 32.304 28.5698C32.6362 28.5693 32.9546 28.4371 33.1894 28.2023C33.4243 27.9674 33.5565 27.649 33.557 27.3168V22.1448C33.557 21.9897 33.4954 21.8409 33.3857 21.7312C33.276 21.6215 33.1272 21.5598 32.972 21.5598C32.8169 21.5598 32.6681 21.6215 32.5583 21.7312C32.4486 21.8409 32.387 21.9897 32.387 22.1448V27.3188C32.387 27.3409 32.3783 27.362 32.3627 27.3775C32.3471 27.3931 32.326 27.4018 32.304 27.4018H31.285C31.263 27.4018 31.2419 27.3931 31.2263 27.3775C31.2107 27.362 31.202 27.3409 31.202 27.3188V20.1898C31.202 20.0347 31.1404 19.8859 31.0307 19.7762C30.9209 19.6665 30.7722 19.6048 30.617 19.6048C30.4618 19.6048 30.3131 19.6665 30.2033 19.7762C30.0936 19.8859 30.032 20.0347 30.032 20.1898V38.8308H28.022V37.7158C28.1485 37.5986 28.2493 37.4564 28.3181 37.2982C28.387 37.14 28.4223 36.9693 28.422 36.7968V28.5418C28.4223 27.7625 28.1131 27.0149 27.5623 26.4634C27.0116 25.9119 26.2644 25.6016 25.485 25.6008H24.265V25.3008C24.5775 25.0716 24.8393 24.7804 25.034 24.4454C25.2288 24.1104 25.3524 23.7388 25.397 23.3538L25.581 20.8618C25.6337 20.1402 25.4465 19.4214 25.0487 18.8171C24.6509 18.2128 24.0646 17.7567 23.381 17.5198C23.6471 17.3685 23.9479 17.2889 24.254 17.2888H25.817C25.9249 17.2926 26.0324 17.2745 26.1332 17.2356C26.2339 17.1968 26.3257 17.1379 26.403 17.0626C26.4804 16.9873 26.5417 16.8971 26.5833 16.7975C26.6249 16.6978 26.6459 16.5908 26.645 16.4828C26.8949 16.5881 27.1633 16.6423 27.4345 16.6423C27.7057 16.6423 27.9741 16.5881 28.224 16.4828C28.2231 16.5908 28.2441 16.6978 28.2857 16.7975C28.3273 16.8971 28.3886 16.9873 28.466 17.0626C28.5433 17.1379 28.6351 17.1968 28.7358 17.2356C28.8366 17.2745 28.9441 17.2926 29.052 17.2888H30.614C30.847 17.2886 31.0777 17.3343 31.293 17.4235C31.5082 17.5127 31.7037 17.6435 31.8683 17.8084C32.0328 17.9733 32.1632 18.1691 32.2519 18.3846C32.3406 18.6 32.3858 18.8309 32.385 19.0638V19.4148C32.3849 19.4918 32.3999 19.5681 32.4293 19.6393C32.4587 19.7104 32.5019 19.7751 32.5563 19.8295C32.6108 19.8839 32.6754 19.9271 32.7466 19.9565C32.8177 19.9859 32.894 20.001 32.971 20.0008V20.0008ZM20.761 1.84385C21.0591 1.523 21.4495 1.30266 21.8782 1.21328C22.307 1.12389 22.7529 1.16988 23.1544 1.34487C23.5559 1.51987 23.8931 1.81524 24.1194 2.19016C24.3458 2.56509 24.4501 3.00107 24.418 3.43785L24.234 5.92985C24.164 6.88385 22.834 7.61185 22.309 7.61185C21.784 7.61185 20.455 6.88385 20.385 5.92985L20.201 3.43785C20.1784 3.14782 20.2165 2.85626 20.3129 2.5818C20.4094 2.30734 20.562 2.056 20.761 1.84385ZM18.326 9.71285C18.525 9.925 18.6776 10.1763 18.7741 10.4508C18.8705 10.7253 18.9086 11.0168 18.886 11.3068L18.702 13.8008C18.632 14.7548 17.302 15.4828 16.777 15.4828C16.252 15.4828 14.923 14.7548 14.852 13.8008L14.668 11.3088C14.6359 10.8721 14.7402 10.4361 14.9666 10.0612C15.1929 9.68624 15.5301 9.39087 15.9316 9.21587C16.3331 9.04088 16.779 8.9949 17.2078 9.08428C17.6365 9.17366 18.0269 9.394 18.325 9.71485L18.326 9.71285ZM18.395 17.3008H19.957C20.3253 17.3007 20.6843 17.4158 20.984 17.6298C20.3641 17.9033 19.844 18.362 19.495 18.9428C19.1461 19.5236 18.9854 20.1981 19.035 20.8738L19.219 23.3658C19.2636 23.7508 19.3872 24.1224 19.582 24.4574C19.7767 24.7924 20.0385 25.0836 20.351 25.3128V25.6128H19.131C18.6742 25.6129 18.2237 25.7196 17.8153 25.9245C17.407 26.1293 17.0522 26.4267 16.779 26.7928C16.5059 26.4266 16.151 26.1292 15.7427 25.9244C15.3344 25.7195 14.8838 25.6128 14.427 25.6128H13.207V25.3128C13.5195 25.0836 13.7813 24.7924 13.976 24.4574C14.1708 24.1224 14.2944 23.7508 14.339 23.3658L14.523 20.8738C14.5726 20.1981 14.4119 19.5236 14.063 18.9428C13.714 18.362 13.1939 17.9033 12.574 17.6298C12.8737 17.4158 13.2327 17.3007 13.601 17.3008H15.164C15.2719 17.3046 15.3794 17.2865 15.4802 17.2476C15.5809 17.2088 15.6727 17.1499 15.75 17.0746C15.8274 16.9993 15.8887 16.9091 15.9303 16.8095C15.9719 16.7098 15.9929 16.6028 15.992 16.4948C16.2419 16.6001 16.5103 16.6543 16.7815 16.6543C17.0527 16.6543 17.3211 16.6001 17.571 16.4948C17.5701 16.6025 17.591 16.7091 17.6323 16.8085C17.6737 16.9079 17.7346 16.9979 17.8116 17.0731C17.8885 17.1484 17.9798 17.2073 18.0801 17.2464C18.1803 17.2856 18.2874 17.3041 18.395 17.3008ZM9.695 1.84785C9.99311 1.527 10.3835 1.30666 10.8122 1.21728C11.241 1.1279 11.6869 1.17388 12.0884 1.34887C12.4899 1.52387 12.8271 1.81924 13.0534 2.19416C13.2798 2.56909 13.3841 3.00507 13.352 3.44185L13.168 5.93385C13.098 6.88785 11.768 7.61585 11.243 7.61585C10.718 7.61585 9.389 6.88785 9.318 5.93385L9.134 3.44185C9.11145 3.15182 9.1496 2.86028 9.24602 2.58583C9.34244 2.31138 9.49501 2.06004 9.694 1.84785H9.695ZM4.192 13.8008L4.008 11.3088C3.98609 11.0186 4.02433 10.727 4.12034 10.4523C4.21634 10.1776 4.36804 9.92563 4.56593 9.71223C4.76381 9.49884 5.00363 9.32861 5.27036 9.21219C5.53709 9.09578 5.82498 9.03569 6.116 9.03569C6.40703 9.03569 6.69492 9.09578 6.96164 9.21219C7.22837 9.32861 7.46819 9.49884 7.66608 9.71223C7.86396 9.92563 8.01566 10.1776 8.11166 10.4523C8.20767 10.727 8.24591 11.0186 8.224 11.3088L8.041 13.8008C7.971 14.7548 6.641 15.4828 6.116 15.4828C5.591 15.4828 4.262 14.7528 4.192 13.8008ZM8.076 16.1298V15.8298C8.38846 15.6006 8.65026 15.3094 8.84504 14.9744C9.03982 14.6394 9.16338 14.2678 9.208 13.8828L9.392 11.3908C9.44143 10.7021 9.27355 10.0152 8.912 9.42685H9.63C9.7379 9.43063 9.84545 9.41253 9.94616 9.37365C10.0469 9.33476 10.1387 9.27589 10.216 9.20059C10.2934 9.12528 10.3547 9.03509 10.3963 8.93546C10.4379 8.83583 10.4589 8.72881 10.458 8.62085C10.7079 8.7261 10.9763 8.78032 11.2475 8.78032C11.5187 8.78032 11.7871 8.7261 12.037 8.62085C12.0361 8.72881 12.0571 8.83583 12.0987 8.93546C12.1403 9.03509 12.2016 9.12528 12.279 9.20059C12.3563 9.27589 12.4481 9.33476 12.5488 9.37365C12.6496 9.41253 12.7571 9.43063 12.865 9.42685H13.985C13.6235 10.0152 13.4556 10.7021 13.505 11.3908L13.685 13.8838C13.7296 14.2688 13.8531 14.6404 14.0479 14.9754C14.2427 15.3105 14.5045 15.6017 14.817 15.8308V16.1308H13.597C13.1933 16.1307 12.7939 16.2138 12.4238 16.3751C12.0537 16.5363 11.7208 16.7721 11.446 17.0678C11.1711 16.7723 10.8382 16.5365 10.4681 16.3753C10.098 16.2141 9.69867 16.1309 9.295 16.1308L8.076 16.1298ZM11.454 18.5298H11.482C12.0251 18.5909 12.5234 18.8601 12.8722 19.2807C13.2211 19.7014 13.3934 20.2408 13.353 20.7858L13.169 23.2778C13.099 24.2318 11.769 24.9598 11.244 24.9598C10.719 24.9598 9.39 24.2318 9.319 23.2778L9.135 20.7858C9.11219 20.4784 9.15693 20.1697 9.26608 19.8814C9.37522 19.5931 9.54614 19.3321 9.76682 19.1169C9.98751 18.9016 10.2526 18.7373 10.5436 18.6353C10.8345 18.5334 11.1442 18.4964 11.451 18.5268L11.454 18.5298ZM6.702 38.0498C7.462 38.0498 7.424 38.0498 7.482 38.0498V38.8338H6.702V38.0498ZM18.545 38.8308H17.363V38.0468C17.422 38.0468 18.463 38.0518 18.545 38.0468V38.8308ZM16.193 38.8308H15.011V38.0468C15.071 38.0468 16.111 38.0518 16.193 38.0468V38.8308ZM26.074 38.8308V38.0468C26.132 38.0468 26.089 38.0468 26.854 38.0468V38.8278L26.074 38.8308ZM23.927 26.7748H25.485C25.9535 26.7754 26.4026 26.9617 26.7339 27.293C27.0651 27.6242 27.2515 28.0734 27.252 28.5418V36.8008C27.252 36.8229 27.2433 36.844 27.2277 36.8595C27.2121 36.8751 27.191 36.8838 27.169 36.8838H26.157C26.135 36.8838 26.1139 36.8751 26.0983 36.8595C26.0827 36.844 26.074 36.8229 26.074 36.8008V29.6668C26.074 29.5117 26.0124 29.3629 25.9027 29.2532C25.793 29.1435 25.6442 29.0818 25.489 29.0818C25.3339 29.0818 25.1851 29.1435 25.0753 29.2532C24.9656 29.3629 24.904 29.5117 24.904 29.6668V38.8308H22.894V38.2718C22.894 38.1167 22.8324 37.9679 22.7227 37.8582C22.613 37.7485 22.4642 37.6868 22.309 37.6868C22.1539 37.6868 22.0051 37.7485 21.8953 37.8582C21.7856 37.9679 21.724 38.1167 21.724 38.2718V38.8308H19.715V29.6668C19.715 29.5117 19.6534 29.3629 19.5437 29.2532C19.434 29.1435 19.2852 29.0818 19.13 29.0818C18.9748 29.0818 18.8261 29.1435 18.7163 29.2532C18.6066 29.3629 18.545 29.5117 18.545 29.6668V36.8008C18.545 36.8229 18.5363 36.844 18.5207 36.8595C18.5051 36.8751 18.484 36.8838 18.462 36.8838H17.446C17.424 36.8838 17.4029 36.8751 17.3873 36.8595C17.3717 36.844 17.363 36.8229 17.363 36.8008V33.0278C17.363 32.8727 17.3014 32.7239 17.1917 32.6142C17.0819 32.5045 16.9332 32.4428 16.778 32.4428C16.6228 32.4428 16.4741 32.5045 16.3643 32.6142C16.2546 32.7239 16.193 32.8727 16.193 33.0278V36.8008C16.193 36.8229 16.1843 36.844 16.1687 36.8595C16.1531 36.8751 16.132 36.8838 16.11 36.8838H15.094C15.072 36.8838 15.0509 36.8751 15.0353 36.8595C15.0197 36.844 15.011 36.8229 15.011 36.8008V29.6668C15.011 29.5117 14.9494 29.3629 14.8397 29.2532C14.73 29.1435 14.5812 29.0818 14.426 29.0818C14.2709 29.0818 14.1221 29.1435 14.0123 29.2532C13.9026 29.3629 13.841 29.5117 13.841 29.6668V38.8308H11.831V38.2718C11.831 38.1167 11.7694 37.9679 11.6597 37.8582C11.55 37.7485 11.4012 37.6868 11.246 37.6868C11.0909 37.6868 10.9421 37.7485 10.8323 37.8582C10.7226 37.9679 10.661 38.1167 10.661 38.2718V38.8308H8.651V29.6668C8.651 29.5117 8.58937 29.3629 8.47966 29.2532C8.36995 29.1435 8.22115 29.0818 8.066 29.0818C7.91085 29.0818 7.76205 29.1435 7.65234 29.2532C7.54263 29.3629 7.481 29.5117 7.481 29.6668V36.8008C7.481 36.8229 7.47226 36.844 7.45669 36.8595C7.44113 36.8751 7.42002 36.8838 7.398 36.8838H6.385C6.36299 36.8838 6.34188 36.8751 6.32631 36.8595C6.31075 36.844 6.302 36.8229 6.302 36.8008V28.5418C6.30253 28.0734 6.48887 27.6242 6.82013 27.293C7.15139 26.9617 7.60053 26.7754 8.069 26.7748H9.632C9.7399 26.7786 9.84744 26.7605 9.94816 26.7216C10.0489 26.6828 10.1407 26.6239 10.218 26.5486C10.2954 26.4733 10.3567 26.3831 10.3983 26.2835C10.4399 26.1838 10.4609 26.0768 10.46 25.9688C10.7099 26.0741 10.9783 26.1283 11.2495 26.1283C11.5207 26.1283 11.7891 26.0741 12.039 25.9688C12.0381 26.0768 12.0591 26.1838 12.1007 26.2835C12.1423 26.3831 12.2036 26.4733 12.281 26.5486C12.3583 26.6239 12.4501 26.6828 12.5508 26.7216C12.6516 26.7605 12.7591 26.7786 12.867 26.7748H14.429C14.8975 26.7754 15.3466 26.9617 15.6779 27.293C16.0091 27.6242 16.1955 28.0734 16.196 28.5418V30.3008C16.196 30.456 16.2576 30.6048 16.3673 30.7145C16.4771 30.8242 16.6259 30.8858 16.781 30.8858C16.9362 30.8858 17.085 30.8242 17.1947 30.7145C17.3044 30.6048 17.366 30.456 17.366 30.3008V28.5418C17.3665 28.0734 17.5529 27.6242 17.8841 27.293C18.2154 26.9617 18.6645 26.7754 19.133 26.7748H20.696C20.8039 26.7786 20.9114 26.7605 21.0122 26.7216C21.1129 26.6828 21.2047 26.6239 21.282 26.5486C21.3594 26.4733 21.4207 26.3831 21.4623 26.2835C21.5039 26.1838 21.5249 26.0768 21.524 25.9688C21.7739 26.0741 22.0423 26.1283 22.3135 26.1283C22.5847 26.1283 22.8531 26.0741 23.103 25.9688C23.1021 26.0765 23.123 26.1831 23.1643 26.2825C23.2057 26.3819 23.2666 26.4719 23.3436 26.5471C23.4205 26.6224 23.5118 26.6813 23.6121 26.7204C23.7123 26.7596 23.8194 26.7781 23.927 26.7748V26.7748ZM24.418 20.7848L24.234 23.2768C24.164 24.2308 22.834 24.9588 22.309 24.9588C21.784 24.9588 20.455 24.2308 20.384 23.2768L20.2 20.7848C20.1596 20.2398 20.3319 19.7004 20.6808 19.2797C21.0296 18.8591 21.5279 18.5899 22.071 18.5288H22.099C22.4057 18.498 22.7153 18.5346 23.0063 18.6361C23.2974 18.7376 23.5626 18.9015 23.7836 19.1164C24.0045 19.3312 24.1758 19.5918 24.2854 19.8799C24.395 20.1679 24.4403 20.4765 24.418 20.7838V20.7848ZM25.48 16.1278H24.26C23.8563 16.1279 23.457 16.2111 23.0869 16.3723C22.7168 16.5335 22.3839 16.7693 22.109 17.0648C21.8342 16.7691 21.5013 16.5333 21.1312 16.3721C20.7611 16.2108 20.3617 16.1277 19.958 16.1278H18.738V15.8278C19.0505 15.5986 19.3123 15.3074 19.507 14.9724C19.7018 14.6374 19.8254 14.2658 19.87 13.8808L20.054 11.3888C20.1034 10.7001 19.9355 10.0132 19.574 9.42485H20.694C20.8019 9.42863 20.9094 9.41053 21.0102 9.37165C21.1109 9.33276 21.2027 9.27389 21.28 9.19859C21.3574 9.12328 21.4187 9.03309 21.4603 8.93346C21.5019 8.83383 21.5229 8.72681 21.522 8.61885C21.7719 8.7241 22.0403 8.77832 22.3115 8.77832C22.5827 8.77832 22.8511 8.7241 23.101 8.61885C23.1001 8.72681 23.1211 8.83383 23.1627 8.93346C23.2043 9.03309 23.2656 9.12328 23.343 9.19859C23.4203 9.27389 23.5121 9.33276 23.6128 9.37165C23.7136 9.41053 23.8211 9.42863 23.929 9.42485H24.647C24.2855 10.0132 24.1176 10.7001 24.167 11.3888L24.351 13.8808C24.3956 14.2658 24.5192 14.6374 24.714 14.9724C24.9087 15.3074 25.1705 15.5986 25.483 15.8278V16.1278H25.48ZM25.515 13.7988L25.331 11.3068C25.3029 10.9346 25.374 10.5615 25.5373 10.2258C25.7005 9.89006 25.9499 9.60366 26.26 9.39585C26.2765 9.386 26.2926 9.37532 26.308 9.36385C26.7252 9.10043 27.2213 8.99112 27.7105 9.05486C28.1997 9.11859 28.6513 9.35135 28.987 9.71285C29.186 9.925 29.3386 10.1763 29.4351 10.4508C29.5315 10.7253 29.5696 11.0168 29.547 11.3068L29.363 13.8008C29.293 14.7548 27.963 15.4828 27.438 15.4828C26.913 15.4828 25.585 14.7528 25.514 13.8008L25.515 13.7988Z" fill="#FD5A40"/>
</g>
<defs>
<clipPath id="clip0_368_1516">
<rect width="33.556" height="40" fill="white"/>
</clipPath>
</defs>
</svg>
